<svg xmlns="http://www.w3.org/2000/svg" width="106.211" height="6.516" viewBox="0 0 106.211 6.516"><polygon fill="#8D9E57" points="47.838,6.515 42.594,2.515 37.345,6.514 32.095,2.515 26.846,6.514 21.598,2.515 16.349,6.514 11.102,2.515 5.854,6.515 0,2.053 1.213,0.462 5.854,4 11.102,0 16.349,4 21.598,0 26.846,4 32.095,0 37.345,4 42.595,0 47.839,4 53.088,0 58.334,4 63.583,0 68.834,4 74.084,0 79.336,4 84.588,0 89.836,4 95.092,0 100.349,4.001 105,0.461 106.211,2.053 100.349,6.514 95.092,2.514 89.836,6.514 84.588,2.515 79.336,6.514 74.084,2.515 68.834,6.514 63.583,2.515 58.334,6.515 53.088,2.515"/></svg>