<svg xmlns="http://www.w3.org/2000/svg" width="106.211" height="6.516" viewBox="0 0 106.211 6.516"><polygon fill="#8D9E57" points="105.466,1.61 106.216,3.49 100.346,6.519 95.106,4.59 89.836,6.519 84.866,4.069 79.336,6.519 73.936,4.59 68.836,6.519 63.936,4.429 58.336,6.519 53.106,4.429 47.836,6.519 42.436,4.26 37.346,6.519 32.106,4.76 26.846,6.519 21.606,4.76 16.346,6.519 11.106,4.09 5.856,6.519 -0.004,3.26 1.436,1.92 5.856,4 11.106,2.519 16.346,4 21.606,2.26 26.846,4 32.106,2.42 37.346,4 41.926,2.139 47.606,4.76 53.106,2.09 58.336,4 63.776,2.09 68.936,4.76 73.606,1.92 79.436,4.76 84.776,1.92 89.836,4 94.936,1.92 100.346,4"/></svg>