<?xml version="1.0" encoding="utf-8"?>
<!-- Generator: Adobe Illustrator 17.0.0, SVG Export Plug-In . SVG Version: 6.00 Build 0)  -->
<!DOCTYPE svg PUBLIC "-//W3C//DTD SVG 1.1//EN" "http://www.w3.org/Graphics/SVG/1.1/DTD/svg11.dtd">
<svg version="1.1" id="Capa_1" xmlns="http://www.w3.org/2000/svg" xmlns:xlink="http://www.w3.org/1999/xlink" x="0px" y="0px"
	 width="500px" height="500px" viewBox="6 18.75 500 500" enable-background="new 6 18.75 500 500" xml:space="preserve">
<g>
	<path d="M456.363,431.892V508.5h38.304V393.588H54.637V236.635c0-4.985-1.868-9.5-5.605-13.547
		c-3.737-4.048-8.252-6.073-13.547-6.073s-9.81,2.025-13.547,6.073c-3.737,4.048-5.605,8.564-5.605,13.547V508.5h38.304v-76.608
		H456.363z"/>
	<path d="M114.896,315.111c9.654,0,18.062-3.426,25.225-10.277c7.163-6.852,10.744-15.105,10.744-24.757
		c0-9.655-3.581-17.908-10.744-24.757c-7.163-6.851-15.571-10.277-25.225-10.277s-17.907,3.426-24.757,10.277
		s-10.277,15.104-10.277,24.757s3.426,17.907,10.277,24.757C96.989,311.685,105.243,315.111,114.896,315.111z"/>
	<path d="M494.667,364.626v-46.712c0-7.474-2.647-13.547-7.941-18.218c-5.297-4.671-11.993-7.63-20.086-8.875l-277.471-27.093H187.3
		c-4.982,0-9.186,1.712-12.612,5.138c-3.426,3.426-5.138,7.63-5.138,12.612v54.186H98.547c-11.834,0-17.751,4.827-17.751,14.481
		s5.917,14.481,17.751,14.481H494.667z"/>
</g>
</svg>
