<?xml version="1.0" encoding="utf-8"?>
<!-- Generator: Adobe Illustrator 17.0.0, SVG Export Plug-In . SVG Version: 6.00 Build 0)  -->
<!DOCTYPE svg PUBLIC "-//W3C//DTD SVG 1.1//EN" "http://www.w3.org/Graphics/SVG/1.1/DTD/svg11.dtd">
<svg version="1.1" id="Layer_1" xmlns="http://www.w3.org/2000/svg" xmlns:xlink="http://www.w3.org/1999/xlink" x="0px" y="0px"
	 width="500px" height="500px" viewBox="-187 -187 500 500" enable-background="new -187 -187 500 500" xml:space="preserve">
<g>
	<path d="M69.582-24.282l-6.947,6.344l-9.162-8.628c-1.902-0.321-3.765-0.727-5.586-1.249c-3.785,1.716-8.296,4.055-12.958,6.807
		c0.34-2.006,0.325-4.036-0.073-6.011c2.072-1.206,4.113-2.319,6.112-3.371C30.276-35.28,21.616-43.8,16.521-54.385
		c-2.818,1.716-5.582,3.468-8.218,5.253c-3.858-2.211-7.573-4.318-10.499-5.972c-4.929,10.677-13.476,19.313-24.079,24.365
		c8.678,4.511,29.789,16.209,35.653,20.349c1.283,0.897,2.667,1.519,4.086,2.01V77.13c0,7.345,1.179,14.338,3.382,20.72
		c-0.062,0.677-0.104,1.365-0.104,2.06v19.201h0.128c-0.008,0.278-0.081,0.541-0.081,0.82l0.008,168.873
		c0,11.516,9.332,20.844,20.844,20.844s20.84-9.328,20.84-20.844l-0.004-168.873c0-0.282-0.073-0.541-0.081-0.82h3.131
		c-0.008,0.278-0.081,0.537-0.081,0.816l-0.012,168.877c0,11.512,9.332,20.844,20.84,20.844h0.004
		c11.508,0,20.84-9.328,20.84-20.836l0.012-168.877c0-0.282-0.073-0.541-0.081-0.82h0.244l0.015-21.818c0,0,3.688-4.94,3.688-22.846
		c0-9.614,0.974-45.48,0.974-45.48l0.101-39.214c-0.22-0.108-29.832-16.336-29.832-16.336L69.582-24.282z"/>
	<path d="M-38.259-25.303l-9.162,7.024l-6.947-6.347C-69.544-17.707-87.79-9.09-88.038-8.97c-2.652,1.252-5.482,1.886-8.396,1.886
		c-3.228,0-6.344-0.847-9.119-2.304l-0.066,0.066c-17.554-14.087-32.193-38.467-37.323-48.967
		c-4.252-8.76-14.806-12.409-23.565-8.157c-8.764,4.256-12.413,14.809-8.157,23.565c3.108,6.405,31.625,62.941,74.646,76.409
		c2.478,0.777,4.967,1.349,7.457,1.813c0.282,10.839,0.8,31.761,0.8,38.777c0,17.902,3.688,22.842,3.688,22.842l0.015,21.822h0.321
		c-0.008,0.286-0.081,0.553-0.081,0.839l0.004,168.876c0,11.512,9.332,20.844,20.844,20.844s20.84-9.336,20.84-20.848
		l-0.004-168.873c0-0.286-0.073-0.557-0.085-0.839h3.139c-0.012,0.282-0.085,0.553-0.085,0.839l-0.012,168.873
		c-0.004,11.516,9.328,20.844,20.84,20.848c11.512,0,20.844-9.332,20.844-20.844l0-168.873c0-0.286-0.073-0.553-0.081-0.839h0.05
		V99.586c0-0.696-0.043-1.384-0.101-2.064c2.203-6.382,3.382-13.379,3.382-20.72v-87.117c-7.492,0.603-30.06-15.776-32.831-17.036
		C-32.901-26.822-36.365-25.616-38.259-25.303z"/>
	<path d="M-97.002-12.685c2.346,0,4.735-0.506,6.993-1.581c0.232-0.108,14.856-7.016,28.815-13.429
		C-73.669-31.16-84.176-39.308-90.74-50.14c-7.252,3.386-12.703,5.961-13.279,6.235c-8.188,3.87-11.686,13.638-7.824,21.826
		C-109.04-16.157-103.145-12.685-97.002-12.685z"/>
	<circle cx="62.643" cy="-75.232" r="45.426"/>
	<circle cx="-46.911" cy="-75.232" r="45.426"/>
	<path d="M185.583-27.916c14.102,6.475,29.058,13.542,29.298,13.65c2.265,1.071,4.65,1.573,7.001,1.573
		c6.135,0,12.022-3.464,14.821-9.39c3.87-8.184,0.375-17.96-7.813-21.826c-0.615-0.29-6.545-3.093-14.326-6.722
		C208.171-39.795,197.869-31.562,185.583-27.916z"/>
	<circle cx="172.201" cy="-75.232" r="45.426"/>
	<path d="M296.525-70.002c-8.744-4.268-19.301-0.626-23.577,8.118c-5.648,11.562-22.792,39.909-42.673,52.859
		c-2.764,1.446-5.857,2.281-9.073,2.281c-2.915,0-5.748-0.638-8.396-1.886c-0.247-0.12-18.49-8.736-33.666-15.652l-6.947,6.344
		l-9.162-8.628c-1.902-0.321-3.769-0.727-5.586-1.249c-3.784,1.716-8.296,4.055-12.958,6.807c0.344-2.006,0.325-4.036-0.073-6.011
		c2.072-1.206,4.109-2.319,6.112-3.371c-10.692-4.89-19.355-13.41-24.447-23.994c-2.818,1.716-5.582,3.468-8.218,5.253
		c-3.858-2.211-7.573-4.318-10.499-5.972c-4.929,10.677-13.48,19.313-24.079,24.365c8.675,4.511,29.789,16.209,35.649,20.349
		c1.283,0.897,2.667,1.519,4.082,2.01V77.13c0,7.345,1.183,14.338,3.386,20.72c-0.062,0.677-0.104,1.365-0.104,2.06v19.201h0.128
		c-0.008,0.278-0.081,0.541-0.081,0.82l0.008,168.873c0,11.516,9.332,20.844,20.844,20.844c11.512,0,20.84-9.328,20.84-20.844
		l-0.015-168.861c0-0.282-0.073-0.541-0.081-0.82h3.135c-0.008,0.278-0.081,0.537-0.081,0.816l-0.012,168.877
		c0,11.512,9.332,20.844,20.84,20.844h0.004c11.508,0,20.84-9.328,20.84-20.836l0.012-168.877c0-0.282-0.073-0.541-0.081-0.82h0.24
		l0.015-21.818c0,0,3.684-4.94,3.684-22.846c0-7.774,0.638-32.692,0.881-41.954c2.099-0.209,4.202-0.533,6.301-0.963l0.162,0.07
		c0.019-0.039,0.046-0.073,0.07-0.112c2.026-0.421,4.055-0.908,6.077-1.542c43.017-13.468,71.535-70,74.643-76.409
		C308.918-55.204,305.269-65.738,296.525-70.002z"/>
</g>
</svg>
