<?xml version="1.0" encoding="utf-8"?>
<!-- Generator: Adobe Illustrator 17.0.0, SVG Export Plug-In . SVG Version: 6.00 Build 0)  -->
<!DOCTYPE svg PUBLIC "-//W3C//DTD SVG 1.1//EN" "http://www.w3.org/Graphics/SVG/1.1/DTD/svg11.dtd">
<svg version="1.1" id="Layer_3" xmlns="http://www.w3.org/2000/svg" xmlns:xlink="http://www.w3.org/1999/xlink" x="0px" y="0px"
	 width="500px" height="500px" viewBox="-200 -200 500 500" enable-background="new -200 -200 500 500" xml:space="preserve">
<path d="M78.49-109.899v400.292c0,4.756-3.329,8.607-7.435,8.607H28.945c-4.106,0-7.435-3.85-7.435-8.607v-400.292
	c0-4.751,3.329-8.601,7.435-8.601h42.111C75.162-118.5,78.49-114.65,78.49-109.899z M281.003,4.521l-36.23-32.516
	c-0.687-0.607-1.569-0.947-2.487-0.947H93.66c-2.05,0-3.72,1.659-3.72,3.72v58.213c0,2.05,1.669,3.715,3.72,3.715h148.626
	c0.772,0,1.524-0.241,2.151-0.682l36.23-25.703c0.922-0.657,1.494-1.694,1.564-2.817C282.291,6.376,281.84,5.283,281.003,4.521z
	 M-182.23,27.526c0.065,1.128,0.642,2.161,1.564,2.817l36.23,25.703c0.627,0.441,1.379,0.687,2.151,0.687H6.346
	c2.05,0,3.715-1.664,3.715-3.715V-5.205c0-2.055-1.664-3.72-3.715-3.72H-142.29c-0.917,0-1.8,0.341-2.482,0.952l-36.23,32.521
	C-181.839,25.306-182.291,26.399-182.23,27.526z M6.341-90.88H-142.29c-0.917,0-1.8,0.331-2.482,0.947l-36.23,32.521
	c-0.842,0.747-1.293,1.845-1.228,2.973c0.065,1.133,0.642,2.171,1.564,2.822l36.23,25.698c0.627,0.446,1.379,0.692,2.151,0.692
	H6.346c2.05,0,3.715-1.669,3.715-3.72v-58.218C10.055-89.226,8.391-90.88,6.341-90.88z"/>
</svg>
