<?xml version="1.0" encoding="utf-8"?>
<!-- Generator: Adobe Illustrator 17.0.0, SVG Export Plug-In . SVG Version: 6.00 Build 0)  -->
<!DOCTYPE svg PUBLIC "-//W3C//DTD SVG 1.1//EN" "http://www.w3.org/Graphics/SVG/1.1/DTD/svg11.dtd">
<svg version="1.1" id="Capa_1" xmlns="http://www.w3.org/2000/svg" xmlns:xlink="http://www.w3.org/1999/xlink" x="0px" y="0px"
	 width="500px" height="500px" viewBox="-144.274 -95.85 500 500" enable-background="new -144.274 -95.85 500 500"
	 xml:space="preserve">
<path fill="#262626" d="M77.083,16.539c0,20.576-16.681,37.266-37.273,37.266c-20.535,0-37.233-16.69-37.233-37.266
	s16.706-37.257,37.241-37.257C60.409-20.718,77.083-4.037,77.083,16.539z"/>
<path fill="#262626" d="M159.654,171.536v-0.032l0.081,0.074c6.147,6.154,16.097,6.154,22.277,0c6.147-6.138,6.122-16.081,0-22.171
	c-0.057-0.122-0.09-0.122-0.09-0.122l-61.243-61.227C101.083,67.74,75.373,65.846,75.373,65.846H0.657
	c-53.518,0.98-51.639,40.261-51.639,40.261l-0.032,91.705h0.097c-0.049,0.21-0.065,0.454-0.065,0.681
	c0,8.656,7.061,15.717,15.767,15.717c8.656,0,15.717-7.061,15.717-15.717c0-0.226-0.032-0.47-0.032-0.681h0.032v-84.831h9.855
	l-0.09,267.027c0,11.75,9.482,21.28,21.192,21.28c11.709,0,21.264-9.53,21.264-21.28l-0.025-172.244h9.523v172.447l0.113,0.129
	c0.113,11.62,9.588,20.908,21.135,20.908c11.701,0,21.135-9.482,21.135-21.095l-0.065-267.618l10.195,0.081L159.654,171.536z"/>
<g>
	<path d="M164.156,390.766c3.998,5.114,12.374,7.856,17.004,7.856h8.391c0,0,3.761,0,8.391,0c4.637,0,13.014-2.743,17.004-7.856
		c12.382-15.868,34.098-62.438,37.272-195.251c3.494-146.443-36.715-210.575-54.485-231.623c-4.185-4.958-12.189-4.958-16.372,0
		c-17.763,21.048-57.979,85.18-54.477,231.623C130.058,328.328,151.767,374.899,164.156,390.766z"/>
</g>
</svg>
