<?xml version="1.0" encoding="utf-8"?>
<!-- Generator: Adobe Illustrator 17.0.0, SVG Export Plug-In . SVG Version: 6.00 Build 0)  -->
<!DOCTYPE svg PUBLIC "-//W3C//DTD SVG 1.1//EN" "http://www.w3.org/Graphics/SVG/1.1/DTD/svg11.dtd">
<svg version="1.1" id="Layer_1" xmlns="http://www.w3.org/2000/svg" xmlns:xlink="http://www.w3.org/1999/xlink" x="0px" y="0px"
	 width="500px" height="500px" viewBox="-225 -225 500 500" enable-background="new -225 -225 500 500" xml:space="preserve">
<g>
	<path d="M-223,274h494.5V149.495C-63.316,122.509-223,274-223,274z"/>
	<path d="M150.199,63.978v-80.074c15.257,2.24,27.055,12.865,27.055-23.862c0-40.353-31.682-122.928-31.682-122.928
		S113.85-80.332,113.85-39.958c0,37.33,12.196,25.751,27.842,23.762v80.837c-20.234,1.989-40.078,4.991-59.574,8.717v-98.885
		l2.314,1.727c1.775,1.366,3.879,1.999,5.963,1.999c3.022,0,5.973-1.386,7.918-3.997c3.311-4.409,2.423-10.666-1.935-13.99
		L72.884-57.544c0.02-0.321,0.11-0.713,0.11-1.055V-75.2c0-5.564-4.458-10.003-9.932-10.003s-9.912,4.439-9.912,10.003v2.802
		L30.253-89.682c-3.5-2.651-8.367-2.651-11.887,0l-66.145,49.934c-4.378,3.314-5.245,9.591-1.935,13.99
		c3.281,4.419,9.484,5.283,13.871,1.999l2.314-1.727v57.838C-124.994-15.503-223-1.664-223-1.664v55.398
		c0,0,132.201-28.834,254.29,26.253C16.093,64.571-0.301,52.208-17.065,41.833V-38.04L24.25-69.234L65.565-38.02V76.612
		c-106.174,23.019-196.721,67.821-240.12,96.756c97.897-30.069,280.208-93.371,446.045-52.937V67.553
		C231.023,61.116,190.137,60.664,150.199,63.978z"/>
</g>
<g id="Ribbon_6">
	<g id="Regal_Vector_Pack_02">
	</g>
</g>
</svg>
